<svg id="visual" viewBox="0 0 900 600" width="900" height="600" xmlns="http://www.w3.org/2000/svg" xmlns:xlink="http://www.w3.org/1999/xlink" version="1.1"><rect x="0" y="0" width="900" height="600" fill="#ffffff"></rect><defs><linearGradient id="grad1_0" x1="33.3%" y1="0%" x2="100%" y2="100%"><stop offset="20%" stop-color="#ffffff" stop-opacity="1"></stop><stop offset="80%" stop-color="#ffffff" stop-opacity="1"></stop></linearGradient></defs><defs><linearGradient id="grad2_0" x1="0%" y1="0%" x2="66.7%" y2="100%"><stop offset="20%" stop-color="#ffffff" stop-opacity="1"></stop><stop offset="80%" stop-color="#ffffff" stop-opacity="1"></stop></linearGradient></defs><g transform="translate(900, 0)"><path d="M0 486.7C-64.3 466.7 -128.6 446.6 -168.8 407.4C-209 368.3 -225.1 310.1 -275.1 275.1C-325 240.1 -408.8 228.2 -449.7 186.3C-490.6 144.3 -488.7 72.1 -486.7 0L0 0Z" fill="#407df7"></path></g><g transform="translate(0, 600)"><path d="M0 -486.7C51.9 -455.3 103.8 -423.9 168.4 -406.5C233 -389.1 310.2 -385.6 344.2 -344.2C378.1 -302.7 368.7 -223.3 385.3 -159.6C401.8 -95.9 444.3 -47.9 486.7 0L0 0Z" fill="#407df7"></path></g></svg>