<svg id="visual" viewBox="0 0 900 600" width="900" height="600" xmlns="http://www.w3.org/2000/svg" xmlns:xlink="http://www.w3.org/1999/xlink" version="1.1"><rect x="0" y="0" width="900" height="600" fill="#001220"></rect><defs><linearGradient id="grad1_0" x1="33.3%" y1="0%" x2="100%" y2="100%"><stop offset="20%" stop-color="#001220" stop-opacity="1"></stop><stop offset="80%" stop-color="#001220" stop-opacity="1"></stop></linearGradient></defs><defs><linearGradient id="grad2_0" x1="0%" y1="0%" x2="66.7%" y2="100%"><stop offset="20%" stop-color="#001220" stop-opacity="1"></stop><stop offset="80%" stop-color="#001220" stop-opacity="1"></stop></linearGradient></defs><g transform="translate(900, 0)"><path d="M0 486.7C-46.7 442.5 -93.3 398.3 -158.4 382.5C-223.5 366.7 -307.1 379.3 -344.2 344.2C-381.3 309 -372 226.1 -388 160.7C-404.1 95.4 -445.4 47.7 -486.7 0L0 0Z" fill="#3c76fa"></path></g><g transform="translate(0, 600)"><path d="M0 -486.7C53.7 -459.4 107.4 -432 171.4 -413.9C235.5 -395.8 309.9 -387 344.2 -344.2C378.5 -301.4 372.8 -224.5 389.9 -161.5C407 -98.5 446.9 -49.2 486.7 0L0 0Z" fill="#3c76fa"></path></g></svg>